<svg viewBox="0 0 80 80" fill="none" xmlns="http://www.w3.org/2000/svg">
  <g transform="translate(15.010,76.000) scale(0.024742,-0.024742)" fill="currentColor">
    <path d="M818 2840 c-117 -25 -177 -45 -276 -94 -255 -125 -423 -351 -487 -651 -17 -82 -20 -295 -4 -381 54 -304 237 -567 478 -689 76 -38 231 -88 257 -83 14 2 24 34 50 158 18 85 33 162 34 171 0 10 -17 19 -51 28 -185 48 -332 191 -396 385 -22 69 -26 99 -26 201 -1 104 3 131 26 201 51 154 156 275 308 354 105 54 182 70 357 70 l142 0 0 175 0 175 -162 -1 c-118 0 -187 -6 -250 -19z M1159 2282 c-34 -31 -25 3 -122 -457 -211 -998 -347 -1656 -347 -1679 0 -72 60 -118 125 -96 68 22 48 -48 250 911 80 382 173 818 205 969 33 157 56 287 53 303 -3 15 -19 38 -35 52 -41 34 -88 33 -129 -3z M1302 1838 c-18 -84 -35 -162 -38 -174 -5 -17 5 -26 59 -52 85 -42 146 -97 206 -187 109 -163 135 -376 70 -572 -69 -210 -321 -403 -524 -403 -23 0 -48 -6 -57 -12 -10 -8 -28 -69 -48 -167 -17 -85 -34 -160 -37 -168 -11 -29 224 -7 367 33 96 28 227 87 296 134 178 123 313 325 371 558 27 106 24 370 -5 486 -56 222 -180 417 -345 542 -64 49 -203 120 -254 130 l-29 6 -32 -154z"/>
  </g>
</svg>
